<svg xmlns="http://www.w3.org/2000/svg"  viewBox="0 0 120 120" width="120px" height="120px" baseProfile="basic"><polygon points="80,44.007 72,44.007 72,25.007 48,25.007 48,44.007 40,44.007 40,17.007 80,17.007" opacity=".35"/><rect width="96" height="69.97" x="12" y="35.022" opacity=".35"/><polygon fill="#0037ff" points="80,41.007 72,41.007 72,22.007 48,22.007 48,41.007 40,41.007 40,14.007 80,14.007"/><rect width="96" height="69.97" x="12" y="31.022" fill="#0075ff"/><polygon points="108,64.007 60,75.007 12,64.007 12,35.007 108,35.007" opacity=".35"/><polygon fill="#52afff" points="108,60.007 60,71.007 12,60.007 12,31.007 108,31.007"/><rect width="14" height="14" x="53" y="67" opacity=".35"/><rect width="14" height="14" x="53" y="64" fill="#a4e2f1"/></svg>